mtllib test.mtl
v 1.000000 0.000000 0.000000
v 1.000000 0.500000 0.000000
v 1.000000 1.000000 0.000000
v 1.000000 1.500000 0.000000
v 1.000000 2.000000 0.000000
v 0.866025 0.000000 0.500000
v 0.866025 0.500000 0.500000
v 0.866025 1.000000 0.500000
v 0.866025 1.500000 0.500000
v 0.866025 2.000000 0.500000
v 0.500000 0.000000 0.866025
v 0.500000 0.500000 0.866025
v 0.500000 1.000000 0.866025
v 0.500000 1.500000 0.866025
v 0.500000 2.000000 0.866025
v -0.000000 0.000000 1.000000
v -0.000000 0.500000 1.000000
v -0.000000 1.000000 1.000000
v -0.000000 1.500000 1.000000
v -0.000000 2.000000 1.000000
v -0.500000 0.000000 0.866025
v -0.500000 0.500000 0.866025
v -0.500000 1.000000 0.866025
v -0.500000 1.500000 0.866025
v -0.500000 2.000000 0.866025
v -0.866025 0.000000 0.500000
v -0.866025 0.500000 0.500000
v -0.866025 1.000000 0.500000
v -0.866025 1.500000 0.500000
v -0.866025 2.000000 0.500000
v -1.000000 0.000000 -0.000000
v -1.000000 0.500000 -0.000000
v -1.000000 1.000000 -0.000000
v -1.000000 1.500000 -0.000000
v -1.000000 2.000000 -0.000000
v -0.866025 0.000000 -0.500000
v -0.866025 0.500000 -0.500000
v -0.866025 1.000000 -0.500000
v -0.866025 1.500000 -0.500000
v -0.866025 2.000000 -0.500000
v -0.500000 0.000000 -0.866025
v -0.500000 0.500000 -0.866025
v -0.500000 1.000000 -0.866025
v -0.500000 1.500000 -0.866025
v -0.500000 2.000000 -0.866025
v 0.000000 0.000000 -1.000000
v 0.000000 0.500000 -1.000000
v 0.000000 1.000000 -1.000000
v 0.000000 1.500000 -1.000000
v 0.000000 2.000000 -1.000000
v 0.500000 0.000000 -0.866025
v 0.500000 0.500000 -0.866025
v 0.500000 1.000000 -0.866025
v 0.500000 1.500000 -0.866025
v 0.500000 2.000000 -0.866025
v 0.866025 0.000000 -0.500000
v 0.866025 0.500000 -0.500000
v 0.866025 1.000000 -0.500000
v 0.866025 1.500000 -0.500000
v 0.866025 2.000000 -0.500000
v -0.132299 2.907113 -0.000001
v 0.000000 0.000000 0.000000
vn 0.694747 -0.719255 -0.000000
vn 1.000000 0.000000 -0.000000
vn 1.000000 0.000000 -0.000000
vn 1.000000 0.000000 -0.000000
vn 0.899276 0.437382 -0.000000
vn 0.601668 -0.719255 0.347373
vn 0.866025 0.000000 0.500000
vn 0.866025 0.000000 0.500000
vn 0.866025 0.000000 0.500000
vn 0.779869 0.433771 0.451273
vn 0.347373 -0.719255 0.601668
vn 0.500000 0.000000 0.866025
vn 0.500000 0.000000 0.866025
vn 0.500000 0.000000 0.866025
vn 0.451582 0.423537 0.785296
vn -0.000000 -0.719255 0.694747
vn -0.000000 0.000000 1.000000
vn -0.000000 0.000000 1.000000
vn -0.000000 0.000000 1.000000
vn -0.001872 0.408649 0.912690
vn -0.347373 -0.719255 0.601668
vn -0.500000 0.000000 0.866025
vn -0.500000 0.000000 0.866025
vn -0.500000 0.000000 0.866025
vn -0.461292 0.392640 0.795640
vn -0.601668 -0.719255 0.347373
vn -0.866025 0.000000 0.500000
vn -0.866025 0.000000 0.500000
vn -0.866025 0.000000 0.500000
vn -0.801495 0.380164 0.461608
vn -0.694747 -0.719255 -0.000000
vn -1.000000 0.000000 -0.000000
vn -1.000000 0.000000 -0.000000
vn -1.000000 0.000000 -0.000000
vn -0.926851 0.375430 -0.000000
vn -0.601668 -0.719255 -0.347373
vn -0.866025 0.000000 -0.500000
vn -0.866025 0.000000 -0.500000
vn -0.866025 0.000000 -0.500000
vn -0.801495 0.380164 -0.461608
vn -0.347373 -0.719255 -0.601668
vn -0.500000 0.000000 -0.866025
vn -0.500000 0.000000 -0.866025
vn -0.500000 0.000000 -0.866025
vn -0.461292 0.392640 -0.795640
vn 0.000000 -0.719255 -0.694747
vn 0.000000 0.000000 -1.000000
vn 0.000000 0.000000 -1.000000
vn 0.000000 0.000000 -1.000000
vn -0.001872 0.408649 -0.912690
vn 0.347373 -0.719255 -0.601668
vn 0.500000 0.000000 -0.866025
vn 0.500000 0.000000 -0.866025
vn 0.500000 0.000000 -0.866025
vn 0.451583 0.423537 -0.785296
vn 0.601668 -0.719255 -0.347373
vn 0.866025 0.000000 -0.500000
vn 0.866025 0.000000 -0.500000
vn 0.866025 0.000000 -0.500000
vn 0.779869 0.433770 -0.451274
vn -0.034229 0.999414 -0.000000
vn 0.000000 -1.000000 0.000000
vt 0.928725 0.252475
vt 0.995049 0.500000
vt 0.995049 0.500000
vt 0.928725 0.252475
vt 0.995049 0.500000
vt 0.928725 0.252475
vt 0.995049 0.500000
vt 0.928725 0.252475
vt 0.995049 0.500000
vt 0.928725 0.252475
vt 0.500000 0.500000
vt 0.500000 0.500000
vt 0.747525 0.071275
vt 0.747525 0.071275
vt 0.747525 0.071275
vt 0.747525 0.071275
vt 0.747525 0.071275
vt 0.500000 0.004951
vt 0.500000 0.004951
vt 0.500000 0.004951
vt 0.500000 0.004951
vt 0.500000 0.004951
vt 0.252475 0.071275
vt 0.252475 0.071275
vt 0.252475 0.071275
vt 0.252475 0.071275
vt 0.252475 0.071275
vt 0.071275 0.252475
vt 0.071275 0.252475
vt 0.071275 0.252475
vt 0.071275 0.252475
vt 0.071275 0.252475
vt 0.004950 0.500000
vt 0.004950 0.500000
vt 0.004950 0.500000
vt 0.004950 0.500000
vt 0.004950 0.500000
vt 0.071275 0.747525
vt 0.071275 0.747525
vt 0.071275 0.747525
vt 0.071275 0.747525
vt 0.071275 0.747525
vt 0.252475 0.928725
vt 0.252475 0.928725
vt 0.252475 0.928725
vt 0.252475 0.928725
vt 0.252475 0.928725
vt 0.500000 0.995049
vt 0.500000 0.995049
vt 0.500000 0.995049
vt 0.500000 0.995049
vt 0.500000 0.995049
vt 0.747525 0.928725
vt 0.747525 0.928725
vt 0.747525 0.928725
vt 0.747525 0.928725
vt 0.747525 0.928725
vt 0.928725 0.747525
vt 0.928725 0.747525
vt 0.928725 0.747525
vt 0.928725 0.747525
vt 0.928725 0.747525
g Cylinder
usemtl Default
f 6/1/6 1/2/1 2/3/2 7/4/7 
f 7/4/7 2/3/2 3/5/3 8/6/8 
f 8/6/8 3/5/3 4/7/4 9/8/9 
f 9/8/9 4/7/4 5/9/5 10/10/10 
f 10/10/10 5/9/5 61/11/61 
f 1/2/1 6/1/6 62/12/62 
f 11/13/11 6/1/6 7/4/7 12/14/12 
f 12/14/12 7/4/7 8/6/8 13/15/13 
f 13/15/13 8/6/8 9/8/9 14/16/14 
f 14/16/14 9/8/9 10/10/10 15/17/15 
f 15/17/15 10/10/10 61/11/61 
f 6/1/6 11/13/11 62/12/62 
f 16/18/16 11/13/11 12/14/12 17/19/17 
f 17/19/17 12/14/12 13/15/13 18/20/18 
f 18/20/18 13/15/13 14/16/14 19/21/19 
f 19/21/19 14/16/14 15/17/15 20/22/20 
f 20/22/20 15/17/15 61/11/61 
f 11/13/11 16/18/16 62/12/62 
f 21/23/21 16/18/16 17/19/17 22/24/22 
f 22/24/22 17/19/17 18/20/18 23/25/23 
f 23/25/23 18/20/18 19/21/19 24/26/24 
f 24/26/24 19/21/19 20/22/20 25/27/25 
f 25/27/25 20/22/20 61/11/61 
f 16/18/16 21/23/21 62/12/62 
f 26/28/26 21/23/21 22/24/22 27/29/27 
f 27/29/27 22/24/22 23/25/23 28/30/28 
f 28/30/28 23/25/23 24/26/24 29/31/29 
f 29/31/29 24/26/24 25/27/25 30/32/30 
f 30/32/30 25/27/25 61/11/61 
f 21/23/21 26/28/26 62/12/62 
f 31/33/31 26/28/26 27/29/27 32/34/32 
f 32/34/32 27/29/27 28/30/28 33/35/33 
f 33/35/33 28/30/28 29/31/29 34/36/34 
f 34/36/34 29/31/29 30/32/30 35/37/35 
f 35/37/35 30/32/30 61/11/61 
f 26/28/26 31/33/31 62/12/62 
f 36/38/36 31/33/31 32/34/32 37/39/37 
f 37/39/37 32/34/32 33/35/33 38/40/38 
f 38/40/38 33/35/33 34/36/34 39/41/39 
f 39/41/39 34/36/34 35/37/35 40/42/40 
f 40/42/40 35/37/35 61/11/61 
f 31/33/31 36/38/36 62/12/62 
f 41/43/41 36/38/36 37/39/37 42/44/42 
f 42/44/42 37/39/37 38/40/38 43/45/43 
f 43/45/43 38/40/38 39/41/39 44/46/44 
f 44/46/44 39/41/39 40/42/40 45/47/45 
f 45/47/45 40/42/40 61/11/61 
f 36/38/36 41/43/41 62/12/62 
f 46/48/46 41/43/41 42/44/42 47/49/47 
f 47/49/47 42/44/42 43/45/43 48/50/48 
f 48/50/48 43/45/43 44/46/44 49/51/49 
f 49/51/49 44/46/44 45/47/45 50/52/50 
f 50/52/50 45/47/45 61/11/61 
f 41/43/41 46/48/46 62/12/62 
f 51/53/51 46/48/46 47/49/47 52/54/52 
f 52/54/52 47/49/47 48/50/48 53/55/53 
f 53/55/53 48/50/48 49/51/49 54/56/54 
f 54/56/54 49/51/49 50/52/50 55/57/55 
f 55/57/55 50/52/50 61/11/61 
f 46/48/46 51/53/51 62/12/62 
f 56/58/56 51/53/51 52/54/52 57/59/57 
f 57/59/57 52/54/52 53/55/53 58/60/58 
f 58/60/58 53/55/53 54/56/54 59/61/59 
f 59/61/59 54/56/54 55/57/55 60/62/60 
f 60/62/60 55/57/55 61/11/61 
f 51/53/51 56/58/56 62/12/62 
f 1/2/1 56/58/56 57/59/57 2/3/2 
f 2/3/2 57/59/57 58/60/58 3/5/3 
f 3/5/3 58/60/58 59/61/59 4/7/4 
f 4/7/4 59/61/59 60/62/60 5/9/5 
f 5/9/5 60/62/60 61/11/61 
f 56/58/56 1/2/1 62/12/62 
